# xmcd
# 
# Track frame offsets:
#     150
#     18513
#     34672
#     50482
#     60610
#     79464
#     93094
#     108402
#     125147
#     143525
#     167833
# 
# Disc length: 2351
# 
# Revision: 4
# Processed by: cddbd v1.5.2PL0 Copyright (c) Steve Scherf et al.
# Submitted via: fre:ac v1.0.31
# 
DISCID=90092d0b
DTITLE=St. Vincent - Actor
DYEAR=2009
DGENRE=Rock/Pop
TTITLE0=The Strangers
TTITLE1=Save Me from What I Want
TTITLE2=The Neighbors
TTITLE3=Actor Out of Work
TTITLE4=Black Rainbow
TTITLE5=Laughing with a Mouth of Blood
TTITLE6=Marrow
TTITLE7=The Bed
TTITLE8=The Party
TTITLE9=Just the Same but Brand New
TTITLE10=The Sequel
EXTD=YEAR: 2009
EXTT0=
EXTT1=
EXTT2=
EXTT3=
EXTT4=
EXTT5=
EXTT6=
EXTT7=
EXTT8=
EXTT9=
EXTT10=
PLAYORDER=
